<svg width="22" height="24" viewBox="0 0 22 24" fill="none" xmlns="http://www.w3.org/2000/svg">
<g clip-path="url(#clip0_34_61)">
<path d="M5.5 18C4.49167 18 3.67583 18.9 3.67583 20C3.67583 21.1 4.49167 22 5.5 22C6.50833 22 7.33333 21.1 7.33333 20C7.33333 18.9 6.50833 18 5.5 18ZM0.916667 4H1.83333L5.13333 11.59L3.89583 14.03C3.22667 15.37 4.10667 17 5.5 17H15.5833C16.0875 17 16.5 16.55 16.5 16C16.5 15.45 16.0875 15 15.5833 15H5.5L6.50833 13H13.3375C14.025 13 14.63 12.59 14.9417 11.97L18.2233 5.48C18.5625 4.82 18.1225 4 17.4258 4H3.85917L3.245 2.57C3.09833 2.22 2.76833 2 2.42 2H0.916667C0.4125 2 0 2.45 0 3C0 3.55 0.4125 4 0.916667 4ZM14.6667 18C13.6583 18 12.8425 18.9 12.8425 20C12.8425 21.1 13.6583 22 14.6667 22C15.675 22 16.5 21.1 16.5 20C16.5 18.9 15.675 18 14.6667 18Z" fill="white"/>
</g>
<defs>
<clipPath id="clip0_34_61">
<rect width="22" height="24" fill="white"/>
</clipPath>
</defs>
</svg>
