<svg width="20" height="17" viewBox="0 0 20 17" fill="none" xmlns="http://www.w3.org/2000/svg">
<g clip-path="url(#clip0_40_2014)">
<path d="M19.4602 7.39418C19.4598 7.39379 19.4593 7.3934 19.4589 7.39301L11.3004 0.458618C10.9527 0.162903 10.4903 0 9.99855 0C9.50676 0 9.04442 0.162773 8.69652 0.458488L0.542379 7.38938C0.539632 7.39172 0.536886 7.39418 0.534139 7.39651C-0.179972 8.00701 -0.178751 8.99753 0.537649 9.60647C0.86495 9.8848 1.29723 10.046 1.75942 10.0629C1.77819 10.0644 1.79711 10.0652 1.81618 10.0652H2.14135V15.1685C2.14135 16.1784 3.10799 17 4.29635 17H7.48818C7.81167 17 8.07412 16.777 8.07412 16.502V12.501C8.07412 12.0402 8.51509 11.6653 9.05724 11.6653H10.9399C11.482 11.6653 11.923 12.0402 11.923 12.501V16.502C11.923 16.777 12.1853 17 12.5089 17H15.7008C16.8891 17 17.8558 16.1784 17.8558 15.1685V10.0652H18.1573C18.6489 10.0652 19.1113 9.90244 19.4593 9.60673C20.1765 8.99675 20.1768 8.00455 19.4602 7.39418Z" fill="black"/>
</g>
<defs>
<clipPath id="clip0_40_2014">
<rect width="20" height="17" fill="white"/>
</clipPath>
</defs>
</svg>
