<svg width="18" height="20" viewBox="0 0 18 20" fill="none" xmlns="http://www.w3.org/2000/svg">
<g clip-path="url(#clip0_34_28)">
<mask id="mask0_34_28" style="mask-type:luminance" maskUnits="userSpaceOnUse" x="0" y="0" width="18" height="20">
<path d="M0 0H18V20H0V0Z" fill="white"/>
</mask>
<g mask="url(#mask0_34_28)">
<path d="M0 0H18V20H0V0Z" stroke="#C6BCBC" stroke-width="0.133333" stroke-miterlimit="10"/>
<path d="M0 0H18V20H0V0Z" fill="#C6BCBC"/>
<path d="M1.89778 0.610765C2.02884 0.586237 2.16166 0.574934 2.29443 0.569885C6.7551 0.570276 11.2158 0.570276 15.6765 0.569885C16.1526 0.580537 16.6581 0.718843 17.0022 1.10506C17.3584 1.49464 17.4867 2.0663 17.5002 2.605C17.4997 7.4266 17.5001 12.2482 17.5 17.0698C17.4973 17.3682 17.5142 17.6693 17.4639 17.9645C17.4021 18.3904 17.2256 18.8134 16.913 19.0828C16.6568 19.31 16.3337 19.4251 16.0114 19.4689C15.7636 19.5048 15.5135 19.4933 15.2644 19.4951C10.9215 19.4952 6.57872 19.4947 2.2359 19.4953C1.75372 19.4841 1.23731 19.3419 0.897897 18.9385C0.563191 18.5598 0.45275 18.0114 0.441456 17.4974C0.440897 12.5539 0.441103 7.61021 0.441367 2.66663C0.450308 2.16868 0.54772 1.64832 0.835485 1.25187C1.09298 0.889331 1.4926 0.681742 1.89778 0.610765Z" stroke="white" stroke-width="0.133333" stroke-miterlimit="10"/>
<path d="M1.89778 0.610765C2.02884 0.586237 2.16166 0.574934 2.29443 0.569885C6.7551 0.570276 11.2158 0.570276 15.6765 0.569885C16.1526 0.580537 16.6581 0.718843 17.0022 1.10506C17.3584 1.49464 17.4867 2.0663 17.5002 2.605C17.4997 7.4266 17.5001 12.2482 17.5 17.0698C17.4973 17.3682 17.5142 17.6693 17.4639 17.9645C17.4021 18.3904 17.2256 18.8134 16.913 19.0828C16.6568 19.31 16.3337 19.4251 16.0114 19.4689C15.7636 19.5048 15.5135 19.4933 15.2644 19.4951C10.9215 19.4952 6.57872 19.4947 2.2359 19.4953C1.75372 19.4841 1.23731 19.3419 0.897897 18.9385C0.563191 18.5598 0.45275 18.0114 0.441456 17.4974C0.440897 12.5539 0.441103 7.61021 0.441367 2.66663C0.450308 2.16868 0.54772 1.64832 0.835485 1.25187C1.09298 0.889331 1.4926 0.681742 1.89778 0.610765Z" fill="white"/>
<path d="M8.80928 3.37735C8.90693 3.32204 9.03899 3.3765 9.0851 3.48549C9.17037 3.6839 9.25319 3.8837 9.3386 4.08211C9.38516 4.18527 9.35016 4.33018 9.25055 4.37647C7.67837 5.16409 6.10555 5.95064 4.53387 6.73901C4.28778 6.8436 4.00752 6.85741 3.75946 6.75302C3.38084 6.6025 3.11005 6.18097 3.10272 5.73588C3.10322 5.01285 3.10258 4.28986 3.10305 3.56689C3.77702 3.5667 4.45099 3.56634 5.12499 3.56706C5.12505 3.97448 5.12513 4.38191 5.1249 4.78934C5.12184 4.89611 5.17643 5.00741 5.26734 5.04911C5.35466 5.08517 5.44969 5.05758 5.5324 5.01963C6.62466 4.4722 7.71681 3.92442 8.80928 3.37735Z" stroke="#C6BCBC" stroke-width="0.133333" stroke-miterlimit="10"/>
<path d="M8.80928 3.37735C8.90693 3.32204 9.03899 3.3765 9.0851 3.48549C9.17037 3.6839 9.25319 3.8837 9.3386 4.08211C9.38516 4.18527 9.35016 4.33018 9.25055 4.37647C7.67837 5.16409 6.10555 5.95064 4.53387 6.73901C4.28778 6.8436 4.00752 6.85741 3.75946 6.75302C3.38084 6.6025 3.11005 6.18097 3.10272 5.73588C3.10322 5.01285 3.10258 4.28986 3.10305 3.56689C3.77702 3.5667 4.45099 3.56634 5.12499 3.56706C5.12505 3.97448 5.12513 4.38191 5.1249 4.78934C5.12184 4.89611 5.17643 5.00741 5.26734 5.04911C5.35466 5.08517 5.44969 5.05758 5.5324 5.01963C6.62466 4.4722 7.71681 3.92442 8.80928 3.37735Z" fill="#C6BCBC"/>
<path d="M11.0573 3.69582C11.3763 3.58562 11.6958 3.47699 12.0144 3.3653C12.1864 3.9153 12.3425 4.47126 12.5103 5.02289C12.6696 4.4695 12.8357 3.91839 13.0003 3.36683C13.3193 3.47354 13.6364 3.58702 13.9547 3.69637C13.81 4.21614 13.6646 4.73572 13.5205 5.25572C13.8358 5.00145 14.1488 4.74363 14.4648 4.49057C14.6713 4.79077 14.8731 5.09481 15.0783 5.39611C14.7265 5.71274 14.3738 6.02822 14.0202 6.34253C14.3834 6.3449 14.7466 6.34305 15.1098 6.3435C15.1106 9.58461 15.1105 12.8258 15.1098 16.0669C13.3723 16.0666 11.6348 16.0669 9.89731 16.0667C9.89678 12.8257 9.89678 9.58468 9.89731 6.34367C10.2616 6.34471 10.626 6.34116 10.9903 6.34556C10.63 6.02175 10.2667 5.70197 9.90378 5.38181C10.1074 5.07868 10.3135 4.77774 10.5164 4.47409C10.8417 4.7324 11.1633 4.99657 11.4892 5.25396C11.3467 4.73409 11.1985 4.21614 11.0573 3.69582Z" stroke="#C6BCBC" stroke-width="0.133333" stroke-miterlimit="10"/>
<path d="M11.0573 3.69582C11.3763 3.58562 11.6958 3.47699 12.0144 3.3653C12.1864 3.9153 12.3425 4.47126 12.5103 5.02288C12.6696 4.4695 12.8357 3.91839 13.0003 3.36683C13.3193 3.47354 13.6364 3.58702 13.9547 3.69637C13.81 4.21614 13.6646 4.73572 13.5205 5.25572C13.8358 5.00145 14.1488 4.74363 14.4648 4.49057C14.6713 4.79077 14.8731 5.09481 15.0783 5.39611C14.7265 5.71274 14.3738 6.02822 14.0202 6.34253C14.3834 6.3449 14.7466 6.34305 15.1098 6.3435C15.1106 9.58461 15.1105 12.8258 15.1098 16.0669C13.3723 16.0666 11.6348 16.0669 9.89731 16.0667C9.89678 12.8257 9.89678 9.58468 9.89731 6.34367C10.2616 6.34471 10.626 6.34116 10.9903 6.34556C10.63 6.02174 10.2667 5.70197 9.90378 5.38181C10.1074 5.07868 10.3135 4.77774 10.5164 4.47409C10.8417 4.7324 11.1633 4.99657 11.4892 5.25396C11.3467 4.73409 11.1985 4.21614 11.0573 3.69582Z" fill="#C6BCBC"/>
<path d="M3.93552 7.83939C4.96155 7.3321 5.98837 6.82669 7.01363 6.3175C7.01775 6.69281 7.00072 7.06767 7.00775 7.44314C7.57625 7.44281 8.14472 7.44259 8.71322 7.44327C8.71396 9.65855 8.71199 11.8738 8.71422 14.0891C8.53587 14.1191 8.37631 14.2664 8.34299 14.4672C8.27808 14.7441 8.46858 15.0481 8.72781 15.0715C8.72811 15.4004 8.72775 15.7294 8.72799 16.0583C7.29837 16.0588 5.86875 16.0586 4.43916 16.0584C4.02134 16.062 3.61543 15.8222 3.37249 15.4486C3.1929 15.1853 3.09534 14.8579 3.08813 14.5288C3.08834 12.7147 3.08828 10.9006 3.08816 9.08646C3.09319 8.82298 3.15093 8.55151 3.29749 8.33897C3.45505 8.10083 3.69408 7.95132 3.93552 7.83939Z" stroke="#C6BCBC" stroke-width="0.133333" stroke-miterlimit="10"/>
<path d="M3.93552 7.83939C4.96155 7.3321 5.98837 6.82669 7.01363 6.3175C7.01775 6.69281 7.00072 7.06767 7.00775 7.44314C7.57625 7.44281 8.14472 7.44259 8.71322 7.44327C8.71396 9.65855 8.71199 11.8738 8.71422 14.0891C8.53587 14.1191 8.37631 14.2664 8.34299 14.4672C8.27808 14.7441 8.46858 15.0481 8.72781 15.0715C8.72811 15.4004 8.72775 15.7294 8.72799 16.0583C7.29837 16.0588 5.86875 16.0586 4.43916 16.0584C4.02134 16.062 3.61543 15.8222 3.37249 15.4486C3.1929 15.1853 3.09534 14.8579 3.08813 14.5288C3.08834 12.7147 3.08828 10.9006 3.08816 9.08646C3.09319 8.82298 3.15093 8.55151 3.29749 8.33897C3.45505 8.10083 3.69408 7.95132 3.93552 7.83939Z" fill="#C6BCBC"/>
<path d="M10.8751 7.49205C11.2451 7.49172 11.6151 7.49179 11.9852 7.49198C11.9852 8.00762 11.9853 8.52329 11.9852 9.03896C11.6151 9.03896 11.2451 9.03922 10.8751 9.03882C10.8749 8.52322 10.8749 8.00762 10.8751 7.49205Z" stroke="white" stroke-width="0.133333" stroke-miterlimit="10"/>
<path d="M10.8751 7.49205C11.2451 7.49172 11.6151 7.49179 11.9852 7.49198C11.9852 8.00762 11.9853 8.52329 11.9852 9.03895C11.6151 9.03895 11.2451 9.03922 10.8751 9.03882C10.8749 8.52322 10.8749 8.00762 10.8751 7.49205Z" fill="white"/>
<path d="M13.0295 7.49192C13.397 7.49183 13.7646 7.49173 14.1322 7.49199C14.1323 8.00762 14.1323 8.52329 14.1322 9.03896C13.7646 9.03906 13.3971 9.03906 13.0295 9.03896C13.0293 8.52326 13.0294 8.00759 13.0295 7.49192Z" stroke="white" stroke-width="0.133333" stroke-miterlimit="10"/>
<path d="M13.0295 7.49192C13.397 7.49183 13.7646 7.49173 14.1322 7.49199C14.1323 8.00762 14.1323 8.52329 14.1322 9.03896C13.7646 9.03906 13.3971 9.03906 13.0295 9.03896C13.0293 8.52326 13.0294 8.00759 13.0295 7.49192Z" fill="white"/>
<path d="M7.00011 8.51805C7.25252 8.51795 7.5049 8.51786 7.75734 8.51808C7.75734 10.0761 7.75725 11.634 7.75734 13.1919C6.87628 13.1911 5.99517 13.1949 5.11414 13.19C5.74275 12.8788 6.37072 12.5661 6.99993 12.2564C7.00014 11.0103 6.99981 9.76418 7.00011 8.51805Z" stroke="white" stroke-width="0.133333" stroke-miterlimit="10"/>
<path d="M7.00011 8.51805C7.25252 8.51795 7.5049 8.51786 7.75734 8.51808C7.75734 10.0761 7.75725 11.634 7.75734 13.1919C6.87628 13.1911 5.99517 13.1949 5.11414 13.19C5.74275 12.8788 6.37072 12.5661 6.99993 12.2564C7.00014 11.0103 6.99981 9.76418 7.00011 8.51805Z" fill="white"/>
<path d="M10.8749 10.1714C11.2451 10.1707 11.6153 10.1708 11.9855 10.1714C11.9849 11.7537 11.9855 13.3361 11.9852 14.9184C11.6151 14.9186 11.2451 14.9186 10.8751 14.9184C10.8749 13.336 10.8751 11.7537 10.8749 10.1714Z" stroke="white" stroke-width="0.133333" stroke-miterlimit="10"/>
<path d="M10.8749 10.1714C11.2451 10.1707 11.6153 10.1708 11.9855 10.1714C11.9849 11.7537 11.9855 13.3361 11.9852 14.9184C11.6151 14.9186 11.2451 14.9186 10.8751 14.9184C10.8749 13.336 10.8751 11.7537 10.8749 10.1714Z" fill="white"/>
<path d="M13.0296 10.171C13.3971 10.1711 13.7646 10.171 14.1322 10.1711C14.1323 11.7535 14.1323 13.336 14.1322 14.9185C13.7646 14.9187 13.397 14.9185 13.0295 14.9185C13.0295 13.336 13.0291 11.7535 13.0296 10.171V10.171Z" stroke="white" stroke-width="0.133333" stroke-miterlimit="10"/>
<path d="M13.0296 10.171C13.3971 10.1711 13.7646 10.171 14.1322 10.1711C14.1323 11.7535 14.1323 13.336 14.1322 14.9185C13.7646 14.9187 13.397 14.9185 13.0295 14.9185C13.0295 13.336 13.0291 11.7535 13.0296 10.171V10.171Z" fill="white"/>
<path d="M4.16448 14.3174C4.22604 14.2673 4.30131 14.2335 4.37857 14.2345C5.39013 14.2343 6.40172 14.2352 7.41328 14.234C7.19881 14.4086 7.21784 14.8081 7.43857 14.9677C6.42016 14.9671 5.40178 14.9673 4.3834 14.9675C4.26669 14.9685 4.14595 14.9007 4.09019 14.7845C4.01745 14.6346 4.04154 14.4264 4.16448 14.3174Z" stroke="white" stroke-width="0.133333" stroke-miterlimit="10"/>
<path d="M4.16448 14.3174C4.22604 14.2673 4.30131 14.2335 4.37857 14.2345C5.39013 14.2343 6.40172 14.2352 7.41328 14.234C7.19881 14.4086 7.21784 14.8081 7.43857 14.9677C6.42016 14.9671 5.40178 14.9673 4.3834 14.9675C4.26669 14.9685 4.14595 14.9007 4.09019 14.7845C4.01745 14.6346 4.04154 14.4264 4.16448 14.3174Z" fill="white"/>
</g>
</g>
<rect x="0.5" y="0.5" width="17" height="19" stroke="white"/>
<defs>
<clipPath id="clip0_34_28">
<rect width="18" height="20" fill="white"/>
</clipPath>
</defs>
</svg>
