<svg width="21" height="21" viewBox="0 0 21 21" fill="none" xmlns="http://www.w3.org/2000/svg">
<path d="M18.09 11.1194C18.13 10.7953 18.16 10.4713 18.16 10.127C18.16 9.78264 18.13 9.45857 18.09 9.13451L20.2 7.46356C20.39 7.31166 20.44 7.03823 20.32 6.81544L18.32 3.31151C18.2 3.08872 17.93 3.00771 17.71 3.08872L15.22 4.10142C14.7 3.69634 14.14 3.36215 13.53 3.10897L13.15 0.425332C13.12 0.182285 12.91 0 12.66 0H8.66C8.41 0 8.2 0.182285 8.17 0.425332L7.79 3.10897C7.18 3.36215 6.62 3.70647 6.1 4.10142L3.61 3.08872C3.38 2.99758 3.12 3.08872 3 3.31151L0.999996 6.81544C0.869996 7.03823 0.929996 7.31166 1.12 7.46356L3.23 9.13451C3.19 9.45857 3.16 9.79276 3.16 10.127C3.16 10.4611 3.19 10.7953 3.23 11.1194L1.12 12.7903C0.929996 12.9422 0.879996 13.2157 0.999996 13.4385L3 16.9424C3.12 17.1652 3.39 17.2462 3.61 17.1652L6.1 16.1525C6.62 16.5576 7.18 16.8918 7.79 17.1449L8.17 19.8286C8.2 20.0716 8.41 20.2539 8.66 20.2539H12.66C12.91 20.2539 13.12 20.0716 13.15 19.8286L13.53 17.1449C14.14 16.8918 14.7 16.5474 15.22 16.1525L17.71 17.1652C17.94 17.2563 18.2 17.1652 18.32 16.9424L20.32 13.4385C20.44 13.2157 20.39 12.9422 20.2 12.7903L18.09 11.1194ZM10.66 13.6714C8.73 13.6714 7.16 12.0815 7.16 10.127C7.16 8.17245 8.73 6.58252 10.66 6.58252C12.59 6.58252 14.16 8.17245 14.16 10.127C14.16 12.0815 12.59 13.6714 10.66 13.6714Z" fill="white"/>
</svg>
