<svg width="59" height="46" viewBox="0 0 59 46" fill="none" xmlns="http://www.w3.org/2000/svg">
<path d="M58.177 18.5846V20.2006C58.177 21.5394 57.0917 22.6247 55.7529 22.6247H54.9449L52.3075 41.0866C51.9663 43.4749 49.9208 45.249 47.5082 45.249H10.6688C8.25618 45.249 6.21069 43.4749 5.86941 41.0866L3.23205 22.6247H2.42404C1.08526 22.6247 0 21.5394 0 20.2006V18.5846C0 17.2458 1.08526 16.1606 2.42404 16.1606H9.22559L20.0106 1.33139C21.0605 -0.112129 23.0817 -0.431395 24.5254 0.618517C25.969 1.66843 26.2882 3.68978 25.2383 5.13339L17.2185 16.1606H40.9585L32.9387 5.13329C31.8888 3.68978 32.208 1.66833 33.6516 0.618416C35.0951 -0.431496 37.1166 -0.112331 38.1665 1.33129L48.9514 16.1606H55.7529C57.0917 16.1606 58.177 17.2458 58.177 18.5846ZM31.5125 36.3609V25.0487C31.5125 23.7099 30.4273 22.6247 29.0885 22.6247C27.7497 22.6247 26.6644 23.7099 26.6644 25.0487V36.3609C26.6644 37.6997 27.7497 38.7849 29.0885 38.7849C30.4273 38.7849 31.5125 37.6997 31.5125 36.3609ZM42.8247 36.3609V25.0487C42.8247 23.7099 41.7394 22.6247 40.4007 22.6247C39.0619 22.6247 37.9766 23.7099 37.9766 25.0487V36.3609C37.9766 37.6997 39.0619 38.7849 40.4007 38.7849C41.7394 38.7849 42.8247 37.6997 42.8247 36.3609ZM20.2003 36.3609V25.0487C20.2003 23.7099 19.1151 22.6247 17.7763 22.6247C16.4375 22.6247 15.3523 23.7099 15.3523 25.0487V36.3609C15.3523 37.6997 16.4375 38.7849 17.7763 38.7849C19.1151 38.7849 20.2003 37.6997 20.2003 36.3609Z" fill="white"/>
</svg>
